<svg width="20px" height="20px" viewBox="0 0 525 751" fill="none" xmlns="http://www.w3.org/2000/svg">
<path d="M525 262.53C525.006 212.212 510.549 162.953 483.353 120.619C456.156 78.2846 417.365 44.6588 371.599 23.746C325.834 2.83315 275.022 -4.48546 225.214 2.66171C175.407 9.80888 128.703 31.1207 90.6647 64.0591C52.6263 96.9975 24.8563 140.175 10.6616 188.448C-3.53309 236.722 -3.55425 288.059 10.6006 336.344C24.7555 384.63 52.49 427.83 90.5012 460.8C128.512 493.769 175.199 515.12 225 522.308V575.03H137.5C127.554 575.03 118.016 578.981 110.983 586.013C103.951 593.046 100 602.584 100 612.53C100 622.476 103.951 632.014 110.983 639.046C118.016 646.079 127.554 650.03 137.5 650.03H225V712.53C225 722.476 228.951 732.014 235.983 739.046C243.016 746.079 252.554 750.03 262.5 750.03C272.446 750.03 281.984 746.079 289.016 739.046C296.049 732.014 300 722.476 300 712.53V650.03H387.5C397.446 650.03 406.984 646.079 414.016 639.046C421.049 632.014 425 622.476 425 612.53C425 602.584 421.049 593.046 414.016 586.013C406.984 578.981 397.446 575.03 387.5 575.03H300V522.308C362.437 513.218 419.523 481.973 460.831 434.28C502.14 386.586 524.916 325.626 525 262.53ZM75 262.53C75 225.446 85.9967 189.195 106.599 158.361C127.202 127.526 156.486 103.494 190.747 89.3025C225.008 75.1111 262.708 71.398 299.079 78.6327C335.451 85.8674 368.86 103.725 395.083 129.947C421.305 156.17 439.163 189.579 446.397 225.951C453.632 262.322 449.919 300.022 435.727 334.283C421.536 368.544 397.504 397.828 366.669 418.431C335.835 439.033 299.584 450.03 262.5 450.03C212.789 449.974 165.131 430.201 129.98 395.05C94.8288 359.899 75.0563 312.241 75 262.53Z" fill="#bb3643"/>
</svg>
