<?xml version="1.0" encoding="UTF-8"?>
<svg id="b" data-name="Layer 3" xmlns="http://www.w3.org/2000/svg" viewBox="0 0 1000.51 1000.51">
  <defs>
    <style>
      .c {
        fill: #3b7d5b;
      }

      .d {
        fill: #e08b42;
      }

      .e {
        fill: #bb3643;
      }

      .f {
        fill: #df8345;
      }

      .g {
        fill: #d24f44;
      }

      .h {
        fill: #26353b;
      }

      .i {
        fill: #4eb369;
      }
    </style>
  </defs>
  <polygon class="i" points="28.16 322.36 203.06 402.34 500.26 255.84 500.26 86.17 28.16 322.36"/>
  <polygon class="f" points="500.26 335.07 500.26 453.17 182.88 606.39 182.88 492.78 500.26 335.07"/>
  <polygon class="c" points="182.88 643.77 341.57 717.77 341.57 914.35 182.88 914.35 182.88 643.77"/>
  <polygon class="d" points="341.04 601.91 341.57 914.35 500.26 914.35 500.26 529.41 341.04 601.91"/>
  <polygon class="i" points="972.35 322.36 797.45 402.34 500.26 255.84 500.26 86.17 972.35 322.36"/>
  <polygon class="g" points="500.26 335.07 500.26 453.17 817.63 606.39 817.63 492.78 500.26 335.07"/>
  <polygon class="h" points="817.63 643.77 658.94 717.77 658.94 914.35 817.63 914.35 817.63 643.77"/>
  <polygon class="e" points="659.47 601.91 658.94 914.35 500.26 914.35 500.26 529.41 659.47 601.91"/>
</svg>