<svg width="20px" height="20px" viewBox="0 0 651 651" fill="none" xmlns="http://www.w3.org/2000/svg">
<path d="M650.493 37.8612C650.489 36.674 650.429 35.4884 650.313 34.3043C650.257 33.7291 650.15 33.1706 650.068 32.603C649.975 31.9606 649.9 31.3151 649.774 30.6773C649.648 30.041 649.473 29.4246 649.316 28.8005C649.174 28.2374 649.051 27.6728 648.883 27.1159C648.699 26.5086 648.471 25.9242 648.258 25.3306C648.057 24.7691 647.872 24.203 647.644 23.6506C647.414 23.0967 647.145 22.5673 646.89 22.0271C646.622 21.4579 646.369 20.8827 646.07 20.3242C645.795 19.81 645.481 19.3233 645.183 18.8228C644.854 18.2719 644.542 17.7134 644.182 17.1763C643.82 16.6347 643.417 16.1281 643.029 15.6076C642.685 15.1468 642.365 14.6753 641.997 14.2282C641.264 13.334 640.486 12.4796 639.675 11.6586C639.619 11.6022 639.573 11.5396 639.517 11.4832C639.456 11.4221 639.389 11.3718 639.327 11.3123C638.511 10.5066 637.662 9.73297 636.776 9.00512C636.313 8.62519 635.826 8.29406 635.35 7.94006C634.846 7.56315 634.354 7.17253 633.83 6.82159C633.276 6.45081 632.702 6.12884 632.133 5.79009C631.65 5.50322 631.179 5.19947 630.683 4.93409C630.11 4.62737 629.522 4.36797 628.939 4.09347C628.412 3.84475 627.895 3.58231 627.356 3.35953C626.792 3.12453 626.216 2.93688 625.643 2.73241C625.061 2.52335 624.485 2.29903 623.889 2.119C623.32 1.94656 622.743 1.81991 622.168 1.67647C621.556 1.52238 620.952 1.34994 620.329 1.22647C619.675 1.09834 619.014 1.02047 618.355 0.925875C617.802 0.846531 617.258 0.74125 616.698 0.686312C615.514 0.570333 614.327 0.510315 613.137 0.506253C613.091 0.506253 613.046 0.5 613 0.5H463C453.054 0.5 443.516 4.45088 436.484 11.4835C429.451 18.5161 425.5 28.0544 425.5 38C425.5 47.9456 429.451 57.4839 436.484 64.5165C443.516 71.5491 453.054 75.5 463 75.5H522.466L420.174 177.792C367.024 138.052 300.794 119.918 234.813 127.041C168.832 134.164 107.998 166.014 64.5536 216.182C21.1092 266.35 -1.72052 331.111 0.658847 397.432C3.03821 463.754 30.4501 526.713 77.3778 573.638C124.305 620.564 187.266 647.973 253.587 650.349C319.909 652.725 384.669 629.893 434.835 586.446C485.001 542.999 516.848 482.164 523.968 416.182C531.087 350.201 512.951 283.972 473.208 230.824L575.5 128.533V188C575.5 197.946 579.451 207.484 586.484 214.517C593.516 221.549 603.054 225.5 613 225.5C622.946 225.5 632.484 221.549 639.516 214.517C646.549 207.484 650.5 197.946 650.5 188V38C650.5 37.9527 650.493 37.9069 650.493 37.8612ZM395.582 520.584C369.365 546.776 335.971 564.607 299.622 571.824C263.272 579.04 225.599 575.319 191.365 561.129C157.13 546.938 127.871 522.917 107.286 492.102C86.7012 461.286 75.7143 425.059 75.7143 388C75.7143 350.941 86.7012 314.714 107.286 283.898C127.871 253.083 157.13 229.062 191.365 214.872C225.599 200.682 263.272 196.96 299.622 204.176C335.971 211.393 369.365 229.224 395.582 255.416C430.695 290.607 450.415 338.288 450.415 388C450.415 437.712 430.695 485.393 395.582 520.584Z" fill="#1f18c0"/>
</svg>
