<?xml version="1.0" encoding="UTF-8"?>
<svg id="b" data-name="Layer 3" xmlns="http://www.w3.org/2000/svg" viewBox="0 0 675.64 159.31">
  <defs>
    <style>
      .d {
        fill: #3b7d5b;
      }

      .e {
        fill: #e08b42;
      }

      .f {
        fill: #bb3643;
      }

      .g {
        fill: #d24f44;
      }

      .h {
        fill: #26353b;
      }

      .i {
        fill: #4eb369;
      }
    </style>
  </defs>
  <g id="c" data-name="Text">
    <path class="f" d="m88.44,33.28h16.75l40.87,100.32h-21.76l-8.03-19.71h-38.5l-7.87,19.71h-21.64l40.18-100.32Zm8.38,32.86l-11.79,29.57h23.84l-12.05-29.57Z"/>
    <path class="g" d="m181.44,67.89v7.79c6.67-6.27,13.68-9.4,21.01-9.4,6.27,0,11.45,2.57,15.55,7.72,4.1,5.15,6.15,11.72,6.15,19.71v39.89h-19.87v-36.75c0-3.77-1.03-6.95-3.09-9.55-2.06-2.6-4.57-3.9-7.53-3.9-3.57,0-6.49,1.64-8.79,4.93-2.29,3.29-3.44,7.53-3.44,12.72v32.55h-19.56v-65.71h19.56Z"/>
    <path class="e" d="m329.59,55.06l-14.36,13.45c-3.01-5.2-6.72-9.08-11.16-11.65-4.43-2.57-9.07-3.86-13.91-3.86-7.85,0-14.66,2.98-20.44,8.94-5.78,5.96-8.67,12.99-8.67,21.09,0,8.61,2.89,15.91,8.67,21.89,5.78,5.99,12.75,8.98,20.9,8.98,4.43,0,8.7-1.12,12.8-3.36,4.1-2.24,7.4-6.44,9.89-12.61h-23.76v-19.56h46.3v12.99c0,6.67-2.29,13.84-6.88,21.51-4.58,7.67-10.62,13.27-18.11,16.81-7.49,3.54-15.05,5.31-22.69,5.31-13.86,0-25.55-5.02-35.07-15.05-9.53-10.04-14.29-22.44-14.29-37.21,0-14.01,4.9-25.98,14.71-35.91,9.81-9.93,21.61-14.9,35.42-14.9,17.62,0,31.17,7.72,40.65,23.15Z"/>
    <path class="i" d="m394.69,133.61v-11.23h-.31c-3.06,4.38-6.14,7.55-9.25,9.51-3.11,1.96-6.95,2.94-11.54,2.94-7.69,0-14.24-3.31-19.64-9.93-5.4-6.62-8.1-14.67-8.1-24.15s2.88-17.41,8.63-24.11c5.76-6.7,12.58-10.05,20.48-10.05,3.77,0,7.16.84,10.16,2.52,3,1.68,6.19,4.36,9.55,8.02v-9.09h19.56v65.56h-19.56Zm-14.36-47.45c-3.87,0-7.11,1.54-9.7,4.62-2.6,3.08-3.9,6.97-3.9,11.65,0,4.38,1.23,7.91,3.71,10.58,2.47,2.67,5.72,4.01,9.74,4.01s7.18-1.54,9.93-4.62c2.75-3.08,4.13-6.81,4.13-11.19,0-4.08-1.38-7.6-4.13-10.58-2.75-2.98-6.01-4.47-9.78-4.47Z"/>
    <path class="d" d="m427.7,67.89h20.65l17.67,38.97,15.59-38.97h12.75l15.52,38.66,17.55-38.66h20.62l-29.96,65.71h-15.69l-14.28-35.99-14.47,35.99h-16.06l-29.87-65.71Z"/>
    <path class="h" d="m602.76,133.61v-11.23h-.31c-3.06,4.38-6.14,7.55-9.25,9.51-3.11,1.96-6.95,2.94-11.54,2.94-7.69,0-14.24-3.31-19.64-9.93-5.4-6.62-8.1-14.67-8.1-24.15s2.88-17.41,8.63-24.11c5.76-6.7,12.58-10.05,20.48-10.05,3.77,0,7.16.84,10.16,2.52,3,1.68,6.19,4.36,9.55,8.02v-9.09h19.56v65.56h-19.56Zm-14.36-47.45c-3.87,0-7.11,1.54-9.7,4.62-2.6,3.08-3.9,6.97-3.9,11.65,0,4.38,1.23,7.91,3.71,10.58,2.47,2.67,5.72,4.01,9.74,4.01s7.18-1.54,9.93-4.62c2.75-3.08,4.13-6.81,4.13-11.19,0-4.08-1.38-7.6-4.13-10.58s-6.01-4.47-9.78-4.47Z"/>
  </g>
</svg>