<svg width="20px" height="20px" viewBox="0 0 500 738" fill="none" xmlns="http://www.w3.org/2000/svg">
<path d="M287.5 240.32V173.395L341.934 206.927C346.127 209.51 350.788 211.242 355.65 212.024C360.512 212.806 365.48 212.622 370.271 211.484C375.062 210.346 379.582 208.275 383.573 205.39C387.564 202.504 390.948 198.861 393.53 194.669C396.113 190.476 397.845 185.815 398.627 180.953C399.409 176.091 399.225 171.123 398.087 166.332C396.949 161.541 394.878 157.02 391.992 153.03C389.107 149.039 385.464 145.655 381.272 143.073L321.497 106.25L381.271 69.4275C389.721 64.2027 395.752 55.8384 398.041 46.1708C400.329 36.5033 398.688 26.3227 393.477 17.8642C388.267 9.40569 379.912 3.36056 370.249 1.05601C360.585 -1.24855 350.402 0.375827 341.934 5.57251L250 62.207L158.066 5.57251C149.598 0.356076 139.405 -1.28293 129.729 1.01607C120.053 3.31506 111.686 9.36373 106.47 17.8314C101.253 26.2991 99.6143 36.4922 101.913 46.1684C104.212 55.8445 110.261 64.2111 118.729 69.4275L178.503 106.25L118.729 143.073C114.531 145.653 110.883 149.035 107.993 153.027C105.103 157.018 103.028 161.539 101.887 166.333C100.745 171.127 100.56 176.098 101.341 180.963C102.122 185.829 103.854 190.492 106.439 194.688C109.023 198.883 112.409 202.528 116.403 205.414C120.397 208.3 124.921 210.37 129.716 211.507C134.51 212.644 139.482 212.824 144.346 212.039C149.211 211.253 153.873 209.516 158.066 206.927L212.5 173.395V240.32C150.164 249.777 93.7036 282.438 54.4289 331.761C15.1542 381.083 -4.03399 443.424 0.708128 506.295C5.45025 569.165 33.7725 627.922 80.0012 670.795C126.23 713.669 186.951 737.491 250 737.491C313.049 737.491 373.77 713.669 419.999 670.795C466.227 627.922 494.55 569.165 499.292 506.295C504.034 443.424 484.846 381.083 445.571 331.761C406.296 282.438 349.836 249.777 287.5 240.32ZM250 662.5C215.388 662.5 181.554 652.236 152.775 633.007C123.997 613.778 101.566 586.447 88.3211 554.47C75.0758 522.493 71.6102 487.306 78.3626 453.359C85.115 419.413 101.782 388.231 126.256 363.756C150.731 339.282 181.913 322.615 215.859 315.863C249.806 309.11 284.993 312.576 316.97 325.821C348.947 339.066 376.278 361.497 395.507 390.275C414.736 419.054 425 452.888 425 487.5C424.948 533.897 406.493 578.378 373.686 611.186C340.878 643.993 296.397 662.448 250 662.5Z" fill="#26353b"/>
</svg>
