<svg fill="#f4f4f4" width="800px" height="800px" viewBox="0 0 32 32" id="Outlined" xmlns="http://www.w3.org/2000/svg"
  stroke="#f4f4f4" stroke-width="0.768">

  <g id="SVGRepo_bgCarrier" stroke-width="0" />

  <g id="SVGRepo_tracerCarrier" stroke-linecap="round" stroke-linejoin="round" />

  <g id="SVGRepo_iconCarrier">
    <title />
    <g id="Fill">
      <path d="M25,26a1,1,0,0,1-1,1H8a1,1,0,0,1-1-1V5H17V3H5V26a3,3,0,0,0,3,3H24a3,3,0,0,0,3-3V13H25Z" />
      <path
        d="M27.12,2.88a3.08,3.08,0,0,0-4.24,0L17,8.75,16,14.05,21.25,13l5.87-5.87A3,3,0,0,0,27.12,2.88Zm-6.86,8.27-1.76.35.35-1.76,3.32-3.33,1.42,1.42Zm5.45-5.44-.71.7L23.59,5l.7-.71h0a1,1,0,0,1,1.42,0A1,1,0,0,1,25.71,5.71Z" />
    </g>
  </g>

</svg>