<svg width="545" height="201" viewBox="0 0 545 201" fill="none" xmlns="http://www.w3.org/2000/svg">
<path d="M142.276 1.271L130.762 41H124.948L115.714 9.02299L106.138 41L100.381 41.057L89.2657 1.271H94.7947L103.459 34.958L113.035 1.271H118.849L127.969 34.844L136.69 1.271H142.276Z" fill="#27363B"/>
<path d="M153.139 5.489V18.77H167.617V23.045H153.139V36.725H169.327V41H147.952V1.214H169.327V5.489H153.139Z" fill="#27363B"/>
<path d="M182.363 36.782H196.271V41H177.176V1.271H182.363V36.782Z" fill="#27363B"/>
<path d="M199.841 21.107C199.841 17.231 200.715 13.754 202.463 10.676C204.211 7.56 206.586 5.128 209.588 3.38C212.628 1.632 215.991 0.757996 219.677 0.757996C224.009 0.757996 227.79 1.803 231.02 3.893C234.25 5.983 236.606 8.947 238.088 12.785H231.875C230.773 10.391 229.177 8.548 227.087 7.256C225.035 5.964 222.565 5.31799 219.677 5.31799C216.903 5.31799 214.414 5.964 212.21 7.256C210.006 8.548 208.277 10.391 207.023 12.785C205.769 15.141 205.142 17.915 205.142 21.107C205.142 24.261 205.769 27.035 207.023 29.429C208.277 31.785 210.006 33.609 212.21 34.901C214.414 36.193 216.903 36.839 219.677 36.839C222.565 36.839 225.035 36.212 227.087 34.958C229.177 33.666 230.773 31.823 231.875 29.429H238.088C236.606 33.229 234.25 36.174 231.02 38.264C227.79 40.316 224.009 41.342 219.677 41.342C215.991 41.342 212.628 40.487 209.588 38.777C206.586 37.029 204.211 34.616 202.463 31.538C200.715 28.46 199.841 24.983 199.841 21.107Z" fill="#27363B"/>
<path d="M263.822 41.399C260.136 41.399 256.773 40.544 253.733 38.834C250.693 37.086 248.28 34.673 246.494 31.595C244.746 28.479 243.872 24.983 243.872 21.107C243.872 17.231 244.746 13.754 246.494 10.676C248.28 7.56 250.693 5.147 253.733 3.437C256.773 1.68899 260.136 0.814995 263.822 0.814995C267.546 0.814995 270.928 1.68899 273.968 3.437C277.008 5.147 279.402 7.541 281.15 10.619C282.898 13.697 283.772 17.193 283.772 21.107C283.772 25.021 282.898 28.517 281.15 31.595C279.402 34.673 277.008 37.086 273.968 38.834C270.928 40.544 267.546 41.399 263.822 41.399ZM263.822 36.896C266.596 36.896 269.085 36.25 271.289 34.958C273.531 33.666 275.279 31.823 276.533 29.429C277.825 27.035 278.471 24.261 278.471 21.107C278.471 17.915 277.825 15.141 276.533 12.785C275.279 10.391 273.55 8.548 271.346 7.256C269.142 5.964 266.634 5.31799 263.822 5.31799C261.01 5.31799 258.502 5.964 256.298 7.256C254.094 8.548 252.346 10.391 251.054 12.785C249.8 15.141 249.173 17.915 249.173 21.107C249.173 24.261 249.8 27.035 251.054 29.429C252.346 31.823 254.094 33.666 256.298 34.958C258.54 36.25 261.048 36.896 263.822 36.896Z" fill="#27363B"/>
<path d="M330.918 1.556V41H325.731V11.588L312.621 41H308.973L295.806 11.531V41H290.619V1.556H296.205L310.797 34.16L325.389 1.556H330.918Z" fill="#27363B"/>
<path d="M344.902 5.489V18.77H359.38V23.045H344.902V36.725H361.09V41H339.715V1.214H361.09V5.489H344.902Z" fill="#27363B"/>
<path d="M408.588 1.271V5.489H397.758V41H392.571V5.489H381.684V1.271H408.588Z" fill="#27363B"/>
<path d="M432.985 41.399C429.299 41.399 425.936 40.544 422.896 38.834C419.856 37.086 417.443 34.673 415.657 31.595C413.909 28.479 413.035 24.983 413.035 21.107C413.035 17.231 413.909 13.754 415.657 10.676C417.443 7.56 419.856 5.147 422.896 3.437C425.936 1.68899 429.299 0.814995 432.985 0.814995C436.709 0.814995 440.091 1.68899 443.131 3.437C446.171 5.147 448.565 7.541 450.313 10.619C452.061 13.697 452.935 17.193 452.935 21.107C452.935 25.021 452.061 28.517 450.313 31.595C448.565 34.673 446.171 37.086 443.131 38.834C440.091 40.544 436.709 41.399 432.985 41.399ZM432.985 36.896C435.759 36.896 438.248 36.25 440.452 34.958C442.694 33.666 444.442 31.823 445.696 29.429C446.988 27.035 447.634 24.261 447.634 21.107C447.634 17.915 446.988 15.141 445.696 12.785C444.442 10.391 442.713 8.548 440.509 7.256C438.305 5.964 435.797 5.31799 432.985 5.31799C430.173 5.31799 427.665 5.964 425.461 7.256C423.257 8.548 421.509 10.391 420.217 12.785C418.963 15.141 418.336 17.915 418.336 21.107C418.336 24.261 418.963 27.035 420.217 29.429C421.509 31.823 423.257 33.666 425.461 34.958C427.703 36.25 430.211 36.896 432.985 36.896Z" fill="#27363B"/>
<path d="M18.7619 169.285L11.2709 183.607V192.286H8.26794V183.607L0.743943 169.285H4.07694L9.75294 180.934L15.4289 169.285H18.7619Z" fill="#27363B"/>
<path d="M29.8164 192.583C28.1224 192.583 26.5824 192.198 25.1964 191.428C23.8324 190.658 22.7544 189.569 21.9624 188.161C21.1924 186.731 20.8074 185.081 20.8074 183.211C20.8074 181.363 21.2034 179.735 21.9954 178.327C22.8094 176.897 23.9094 175.808 25.2954 175.06C26.6814 174.29 28.2324 173.905 29.9484 173.905C31.6644 173.905 33.2154 174.29 34.6014 175.06C35.9874 175.808 37.0764 176.886 37.8684 178.294C38.6824 179.702 39.0894 181.341 39.0894 183.211C39.0894 185.081 38.6714 186.731 37.8354 188.161C37.0214 189.569 35.9104 190.658 34.5024 191.428C33.0944 192.198 31.5324 192.583 29.8164 192.583ZM29.8164 189.943C30.8944 189.943 31.9064 189.69 32.8524 189.184C33.7984 188.678 34.5574 187.919 35.1294 186.907C35.7234 185.895 36.0204 184.663 36.0204 183.211C36.0204 181.759 35.7344 180.527 35.1624 179.515C34.5904 178.503 33.8424 177.755 32.9184 177.271C31.9944 176.765 30.9934 176.512 29.9154 176.512C28.8154 176.512 27.8034 176.765 26.8794 177.271C25.9774 177.755 25.2514 178.503 24.7014 179.515C24.1514 180.527 23.8764 181.759 23.8764 183.211C23.8764 184.685 24.1404 185.928 24.6684 186.94C25.2184 187.952 25.9444 188.711 26.8464 189.217C27.7484 189.701 28.7384 189.943 29.8164 189.943Z" fill="#27363B"/>
<path d="M59.0758 174.202V192.286H56.0728V189.613C55.5008 190.537 54.6978 191.263 53.6638 191.791C52.6518 192.297 51.5298 192.55 50.2978 192.55C48.8898 192.55 47.6248 192.264 46.5028 191.692C45.3808 191.098 44.4898 190.218 43.8298 189.052C43.1918 187.886 42.8728 186.467 42.8728 184.795V174.202H45.8428V184.399C45.8428 186.181 46.2938 187.556 47.1958 188.524C48.0978 189.47 49.3298 189.943 50.8918 189.943C52.4978 189.943 53.7628 189.448 54.6868 188.458C55.6108 187.468 56.0728 186.027 56.0728 184.135V174.202H59.0758Z" fill="#27363B"/>
<path d="M67.1492 177.139C67.6772 176.105 68.4252 175.302 69.3932 174.73C70.3832 174.158 71.5822 173.872 72.9902 173.872V176.974H72.1982C68.8322 176.974 67.1492 178.8 67.1492 182.452V192.286H64.1462V174.202H67.1492V177.139Z" fill="#27363B"/>
<path d="M98.8506 187.171H88.8186L86.9706 192.286H83.8026L92.1186 169.417H95.5836L103.867 192.286H100.699L98.8506 187.171ZM97.9926 184.729L93.8346 173.113L89.6766 184.729H97.9926Z" fill="#27363B"/>
<path d="M110.494 167.866V192.286H107.491V167.866H110.494Z" fill="#27363B"/>
<path d="M118.615 167.866V192.286H115.612V167.866H118.615Z" fill="#27363B"/>
<path d="M136.273 178.921V181.462H123.106V178.921H136.273Z" fill="#27363B"/>
<path d="M143.46 171.265C142.888 171.265 142.404 171.067 142.008 170.671C141.612 170.275 141.414 169.791 141.414 169.219C141.414 168.647 141.612 168.163 142.008 167.767C142.404 167.371 142.888 167.173 143.46 167.173C144.01 167.173 144.472 167.371 144.846 167.767C145.242 168.163 145.44 168.647 145.44 169.219C145.44 169.791 145.242 170.275 144.846 170.671C144.472 171.067 144.01 171.265 143.46 171.265ZM144.912 174.202V192.286H141.909V174.202H144.912Z" fill="#27363B"/>
<path d="M158.841 173.872C161.041 173.872 162.823 174.543 164.187 175.885C165.551 177.205 166.233 179.119 166.233 181.627V192.286H163.263V182.056C163.263 180.252 162.812 178.877 161.91 177.931C161.008 176.963 159.776 176.479 158.214 176.479C156.63 176.479 155.365 176.974 154.419 177.964C153.495 178.954 153.033 180.395 153.033 182.287V192.286H150.03V174.202H153.033V176.776C153.627 175.852 154.43 175.137 155.442 174.631C156.476 174.125 157.609 173.872 158.841 173.872Z" fill="#27363B"/>
<path d="M183.678 178.921V181.462H170.511V178.921H183.678Z" fill="#27363B"/>
<path d="M199.742 192.517C197.608 192.517 195.661 192.022 193.901 191.032C192.141 190.02 190.744 188.623 189.71 186.841C188.698 185.037 188.192 183.013 188.192 180.769C188.192 178.525 188.698 176.512 189.71 174.73C190.744 172.926 192.141 171.529 193.901 170.539C195.661 169.527 197.608 169.021 199.742 169.021C201.898 169.021 203.856 169.527 205.616 170.539C207.376 171.529 208.762 172.915 209.774 174.697C210.786 176.479 211.292 178.503 211.292 180.769C211.292 183.035 210.786 185.059 209.774 186.841C208.762 188.623 207.376 190.02 205.616 191.032C203.856 192.022 201.898 192.517 199.742 192.517ZM199.742 189.91C201.348 189.91 202.789 189.536 204.065 188.788C205.363 188.04 206.375 186.973 207.101 185.587C207.849 184.201 208.223 182.595 208.223 180.769C208.223 178.921 207.849 177.315 207.101 175.951C206.375 174.565 205.374 173.498 204.098 172.75C202.822 172.002 201.37 171.628 199.742 171.628C198.114 171.628 196.662 172.002 195.386 172.75C194.11 173.498 193.098 174.565 192.35 175.951C191.624 177.315 191.261 178.921 191.261 180.769C191.261 182.595 191.624 184.201 192.35 185.587C193.098 186.973 194.11 188.04 195.386 188.788C196.684 189.536 198.136 189.91 199.742 189.91Z" fill="#27363B"/>
<path d="M224.068 173.872C226.268 173.872 228.05 174.543 229.414 175.885C230.778 177.205 231.46 179.119 231.46 181.627V192.286H228.49V182.056C228.49 180.252 228.039 178.877 227.137 177.931C226.235 176.963 225.003 176.479 223.441 176.479C221.857 176.479 220.592 176.974 219.646 177.964C218.722 178.954 218.26 180.395 218.26 182.287V192.286H215.257V174.202H218.26V176.776C218.854 175.852 219.657 175.137 220.669 174.631C221.703 174.125 222.836 173.872 224.068 173.872Z" fill="#27363B"/>
<path d="M252.865 182.551C252.865 183.123 252.832 183.728 252.766 184.366H238.312C238.422 186.148 239.027 187.545 240.127 188.557C241.249 189.547 242.602 190.042 244.186 190.042C245.484 190.042 246.562 189.745 247.42 189.151C248.3 188.535 248.916 187.721 249.268 186.709H252.502C252.018 188.447 251.05 189.866 249.598 190.966C248.146 192.044 246.342 192.583 244.186 192.583C242.47 192.583 240.93 192.198 239.566 191.428C238.224 190.658 237.168 189.569 236.398 188.161C235.628 186.731 235.243 185.081 235.243 183.211C235.243 181.341 235.617 179.702 236.365 178.294C237.113 176.886 238.158 175.808 239.5 175.06C240.864 174.29 242.426 173.905 244.186 173.905C245.902 173.905 247.42 174.279 248.74 175.027C250.06 175.775 251.072 176.809 251.776 178.129C252.502 179.427 252.865 180.901 252.865 182.551ZM249.763 181.924C249.763 180.78 249.51 179.801 249.004 178.987C248.498 178.151 247.805 177.524 246.925 177.106C246.067 176.666 245.11 176.446 244.054 176.446C242.536 176.446 241.238 176.93 240.16 177.898C239.104 178.866 238.499 180.208 238.345 181.924H249.763Z" fill="#27363B"/>
<path d="M281.005 176.017C281.005 177.931 280.345 179.526 279.025 180.802C277.727 182.056 275.736 182.683 273.052 182.683H268.63V192.286H265.627V169.285H273.052C275.648 169.285 277.617 169.912 278.959 171.166C280.323 172.42 281.005 174.037 281.005 176.017ZM273.052 180.208C274.724 180.208 275.956 179.845 276.748 179.119C277.54 178.393 277.936 177.359 277.936 176.017C277.936 173.179 276.308 171.76 273.052 171.76H268.63V180.208H273.052Z" fill="#27363B"/>
<path d="M287.74 177.139C288.268 176.105 289.016 175.302 289.984 174.73C290.974 174.158 292.173 173.872 293.581 173.872V176.974H292.789C289.423 176.974 287.74 178.8 287.74 182.452V192.286H284.737V174.202H287.74V177.139Z" fill="#27363B"/>
<path d="M304.935 192.583C303.241 192.583 301.701 192.198 300.315 191.428C298.951 190.658 297.873 189.569 297.081 188.161C296.311 186.731 295.926 185.081 295.926 183.211C295.926 181.363 296.322 179.735 297.114 178.327C297.928 176.897 299.028 175.808 300.414 175.06C301.8 174.29 303.351 173.905 305.067 173.905C306.783 173.905 308.334 174.29 309.72 175.06C311.106 175.808 312.195 176.886 312.987 178.294C313.801 179.702 314.208 181.341 314.208 183.211C314.208 185.081 313.79 186.731 312.954 188.161C312.14 189.569 311.029 190.658 309.621 191.428C308.213 192.198 306.651 192.583 304.935 192.583ZM304.935 189.943C306.013 189.943 307.025 189.69 307.971 189.184C308.917 188.678 309.676 187.919 310.248 186.907C310.842 185.895 311.139 184.663 311.139 183.211C311.139 181.759 310.853 180.527 310.281 179.515C309.709 178.503 308.961 177.755 308.037 177.271C307.113 176.765 306.112 176.512 305.034 176.512C303.934 176.512 302.922 176.765 301.998 177.271C301.096 177.755 300.37 178.503 299.82 179.515C299.27 180.527 298.995 181.759 298.995 183.211C298.995 184.685 299.259 185.928 299.787 186.94C300.337 187.952 301.063 188.711 301.965 189.217C302.867 189.701 303.857 189.943 304.935 189.943Z" fill="#27363B"/>
<path d="M317.034 183.178C317.034 181.33 317.408 179.713 318.156 178.327C318.904 176.919 319.927 175.83 321.225 175.06C322.545 174.29 324.019 173.905 325.647 173.905C327.055 173.905 328.364 174.235 329.574 174.895C330.784 175.533 331.708 176.38 332.346 177.436V167.866H335.382V192.286H332.346V188.887C331.752 189.965 330.872 190.856 329.706 191.56C328.54 192.242 327.176 192.583 325.614 192.583C324.008 192.583 322.545 192.187 321.225 191.395C319.927 190.603 318.904 189.492 318.156 188.062C317.408 186.632 317.034 185.004 317.034 183.178ZM332.346 183.211C332.346 181.847 332.071 180.659 331.521 179.647C330.971 178.635 330.223 177.865 329.277 177.337C328.353 176.787 327.33 176.512 326.208 176.512C325.086 176.512 324.063 176.776 323.139 177.304C322.215 177.832 321.478 178.602 320.928 179.614C320.378 180.626 320.103 181.814 320.103 183.178C320.103 184.564 320.378 185.774 320.928 186.808C321.478 187.82 322.215 188.601 323.139 189.151C324.063 189.679 325.086 189.943 326.208 189.943C327.33 189.943 328.353 189.679 329.277 189.151C330.223 188.601 330.971 187.82 331.521 186.808C332.071 185.774 332.346 184.575 332.346 183.211Z" fill="#27363B"/>
<path d="M356.495 174.202V192.286H353.492V189.613C352.92 190.537 352.117 191.263 351.083 191.791C350.071 192.297 348.949 192.55 347.717 192.55C346.309 192.55 345.044 192.264 343.922 191.692C342.8 191.098 341.909 190.218 341.249 189.052C340.611 187.886 340.292 186.467 340.292 184.795V174.202H343.262V184.399C343.262 186.181 343.713 187.556 344.615 188.524C345.517 189.47 346.749 189.943 348.311 189.943C349.917 189.943 351.182 189.448 352.106 188.458C353.03 187.468 353.492 186.027 353.492 184.135V174.202H356.495Z" fill="#27363B"/>
<path d="M360.443 183.211C360.443 181.341 360.817 179.713 361.565 178.327C362.313 176.919 363.347 175.83 364.667 175.06C366.009 174.29 367.538 173.905 369.254 173.905C371.476 173.905 373.302 174.444 374.732 175.522C376.184 176.6 377.141 178.096 377.603 180.01H374.369C374.061 178.91 373.456 178.041 372.554 177.403C371.674 176.765 370.574 176.446 369.254 176.446C367.538 176.446 366.152 177.04 365.096 178.228C364.04 179.394 363.512 181.055 363.512 183.211C363.512 185.389 364.04 187.072 365.096 188.26C366.152 189.448 367.538 190.042 369.254 190.042C370.574 190.042 371.674 189.734 372.554 189.118C373.434 188.502 374.039 187.622 374.369 186.478H377.603C377.119 188.326 376.151 189.811 374.699 190.933C373.247 192.033 371.432 192.583 369.254 192.583C367.538 192.583 366.009 192.198 364.667 191.428C363.347 190.658 362.313 189.569 361.565 188.161C360.817 186.753 360.443 185.103 360.443 183.211Z" fill="#27363B"/>
<path d="M385.273 176.677V187.336C385.273 188.216 385.46 188.843 385.834 189.217C386.208 189.569 386.857 189.745 387.781 189.745H389.992V192.286H387.286C385.614 192.286 384.36 191.901 383.524 191.131C382.688 190.361 382.27 189.096 382.27 187.336V176.677H379.927V174.202H382.27V169.648H385.273V174.202H389.992V176.677H385.273Z" fill="#27363B"/>
<path d="M395.182 171.265C394.61 171.265 394.126 171.067 393.73 170.671C393.334 170.275 393.136 169.791 393.136 169.219C393.136 168.647 393.334 168.163 393.73 167.767C394.126 167.371 394.61 167.173 395.182 167.173C395.732 167.173 396.194 167.371 396.568 167.767C396.964 168.163 397.162 168.647 397.162 169.219C397.162 169.791 396.964 170.275 396.568 170.671C396.194 171.067 395.732 171.265 395.182 171.265ZM396.634 174.202V192.286H393.631V174.202H396.634Z" fill="#27363B"/>
<path d="M408.484 189.514L414.094 174.202H417.295L410.2 192.286H406.702L399.607 174.202H402.841L408.484 189.514Z" fill="#27363B"/>
<path d="M421.801 171.265C421.229 171.265 420.745 171.067 420.349 170.671C419.953 170.275 419.755 169.791 419.755 169.219C419.755 168.647 419.953 168.163 420.349 167.767C420.745 167.371 421.229 167.173 421.801 167.173C422.351 167.173 422.813 167.371 423.187 167.767C423.583 168.163 423.781 168.647 423.781 169.219C423.781 169.791 423.583 170.275 423.187 170.671C422.813 171.067 422.351 171.265 421.801 171.265ZM423.253 174.202V192.286H420.25V174.202H423.253Z" fill="#27363B"/>
<path d="M432.034 176.677V187.336C432.034 188.216 432.221 188.843 432.595 189.217C432.969 189.569 433.618 189.745 434.542 189.745H436.753V192.286H434.047C432.375 192.286 431.121 191.901 430.285 191.131C429.449 190.361 429.031 189.096 429.031 187.336V176.677H426.688V174.202H429.031V169.648H432.034V174.202H436.753V176.677H432.034Z" fill="#27363B"/>
<path d="M455.967 174.202L445.077 200.8H441.975L445.539 192.088L438.246 174.202H441.579L447.255 188.854L452.865 174.202H455.967Z" fill="#27363B"/>
<path d="M485.505 169.285V192.286H482.502V181.858H470.787V192.286H467.784V169.285H470.787V179.383H482.502V169.285H485.505Z" fill="#27363B"/>
<path d="M506.671 174.202V192.286H503.668V189.613C503.096 190.537 502.293 191.263 501.259 191.791C500.247 192.297 499.125 192.55 497.893 192.55C496.485 192.55 495.22 192.264 494.098 191.692C492.976 191.098 492.085 190.218 491.425 189.052C490.787 187.886 490.468 186.467 490.468 184.795V174.202H493.438V184.399C493.438 186.181 493.889 187.556 494.791 188.524C495.693 189.47 496.925 189.943 498.487 189.943C500.093 189.943 501.358 189.448 502.282 188.458C503.206 187.468 503.668 186.027 503.668 184.135V174.202H506.671Z" fill="#27363B"/>
<path d="M514.744 177.568C515.36 176.49 516.262 175.61 517.45 174.928C518.638 174.246 519.991 173.905 521.509 173.905C523.137 173.905 524.6 174.29 525.898 175.06C527.196 175.83 528.219 176.919 528.967 178.327C529.715 179.713 530.089 181.33 530.089 183.178C530.089 185.004 529.715 186.632 528.967 188.062C528.219 189.492 527.185 190.603 525.865 191.395C524.567 192.187 523.115 192.583 521.509 192.583C519.947 192.583 518.572 192.242 517.384 191.56C516.218 190.878 515.338 190.009 514.744 188.953V192.286H511.741V167.866H514.744V177.568ZM527.02 183.178C527.02 181.814 526.745 180.626 526.195 179.614C525.645 178.602 524.897 177.832 523.951 177.304C523.027 176.776 522.004 176.512 520.882 176.512C519.782 176.512 518.759 176.787 517.813 177.337C516.889 177.865 516.141 178.646 515.569 179.68C515.019 180.692 514.744 181.869 514.744 183.211C514.744 184.575 515.019 185.774 515.569 186.808C516.141 187.82 516.889 188.601 517.813 189.151C518.759 189.679 519.782 189.943 520.882 189.943C522.004 189.943 523.027 189.679 523.951 189.151C524.897 188.601 525.645 187.82 526.195 186.808C526.745 185.774 527.02 184.564 527.02 183.178Z" fill="#27363B"/>
<path d="M537.936 169.285L537.573 185.785H535.065L534.702 169.285H537.936ZM536.451 192.484C535.879 192.484 535.395 192.286 534.999 191.89C534.603 191.494 534.405 191.01 534.405 190.438C534.405 189.866 534.603 189.382 534.999 188.986C535.395 188.59 535.879 188.392 536.451 188.392C537.001 188.392 537.463 188.59 537.837 188.986C538.233 189.382 538.431 189.866 538.431 190.438C538.431 191.01 538.233 191.494 537.837 191.89C537.463 192.286 537.001 192.484 536.451 192.484Z" fill="#27363B"/>
<path d="M38.0984 51.3061H53.9806L92.7332 147.655H72.1005L64.4865 128.725H27.9811L20.5189 147.655H0L38.0984 51.3061ZM46.0442 82.8654L34.865 111.265H57.4699L46.0442 82.8654Z" fill="#BB3643"/>
<path d="M126.28 84.5462V92.0278C132.605 86.006 139.251 82.9999 146.202 82.9999C152.147 82.9999 157.058 85.4682 160.946 90.4143C164.834 95.3604 166.777 101.67 166.777 109.344V147.655H147.937V112.36C147.937 108.739 146.96 105.685 145.007 103.188C143.054 100.691 140.674 99.4422 137.867 99.4422C134.482 99.4422 131.713 101.017 129.532 104.177C127.361 107.337 126.271 111.409 126.271 116.394V147.655H107.724V84.5462H126.28Z" fill="#D24F44"/>
<path d="M266.755 72.224L253.139 85.1416C250.285 80.1474 246.767 76.421 242.557 73.9528C238.356 71.4845 233.957 70.2456 229.368 70.2456C221.924 70.2456 215.467 73.1076 209.987 78.8317C204.506 84.5557 201.766 91.3075 201.766 99.0868C201.766 107.356 204.506 114.367 209.987 120.11C215.467 125.863 222.076 128.735 229.804 128.735C234.004 128.735 238.053 127.659 241.941 125.508C245.828 123.357 248.957 119.323 251.318 113.397H228.789V94.6113H272.69V107.087C272.69 113.493 270.519 120.379 266.167 127.746C261.824 135.112 256.097 140.49 248.995 143.89C241.893 147.29 234.725 148.99 227.481 148.99C214.339 148.99 203.254 144.169 194.228 134.536C185.191 124.893 180.678 112.984 180.678 98.7987C180.678 85.3433 185.324 73.8471 194.626 64.3102C203.928 54.7733 215.116 50 228.211 50C244.918 50 257.766 57.4144 266.755 72.2336V72.224Z" fill="#E08B42"/>
<path d="M328.482 147.665V136.879H328.188C325.287 141.086 322.366 144.13 319.417 146.013C316.468 147.895 312.827 148.836 308.475 148.836C301.184 148.836 294.973 145.657 289.853 139.299C284.733 132.941 282.172 125.21 282.172 116.105C282.172 107.001 284.903 99.3846 290.355 92.9498C295.817 86.515 302.284 83.2976 309.774 83.2976C313.349 83.2976 316.563 84.1044 319.408 85.7179C322.252 87.3314 325.277 89.9053 328.463 93.4204V84.6902H347.01V147.655H328.463L328.482 147.665ZM314.866 102.093C311.197 102.093 308.124 103.572 305.669 106.53C303.203 109.488 301.971 113.224 301.971 117.719C301.971 121.926 303.137 125.316 305.488 127.88C307.83 130.444 310.912 131.731 314.724 131.731C318.536 131.731 321.532 130.252 324.139 127.294C326.747 124.336 328.055 120.754 328.055 116.547C328.055 112.629 326.747 109.248 324.139 106.386C321.532 103.524 318.441 102.093 314.866 102.093Z" fill="#4EB369"/>
<path d="M359.782 84.5461H379.362L396.117 121.974L410.899 84.5461H422.988L437.704 121.676L454.345 84.5461H473.897L445.489 147.655H430.612L417.072 113.09L403.351 147.655H388.123L359.801 84.5461H359.782Z" fill="#3B7D5B"/>
<path d="M525.772 147.665V136.879H525.478C522.577 141.086 519.657 144.13 516.708 146.013C513.759 147.895 510.118 148.836 505.765 148.836C498.474 148.836 492.263 145.657 487.143 139.299C482.023 132.941 479.463 125.21 479.463 116.105C479.463 107.001 482.193 99.3846 487.646 92.9498C493.107 86.515 499.574 83.2976 507.065 83.2976C510.639 83.2976 513.854 84.1044 516.698 85.7179C519.543 87.3314 522.567 89.9053 525.753 93.4204V84.6902H544.3V147.655H525.753L525.772 147.665ZM512.156 102.093C508.487 102.093 505.415 103.572 502.959 106.53C500.494 109.488 499.261 113.224 499.261 117.719C499.261 121.926 500.427 125.316 502.779 127.88C505.121 130.444 508.202 131.731 512.014 131.731C515.826 131.731 518.822 130.252 521.43 127.294C524.037 124.336 525.346 120.754 525.346 116.547C525.346 112.629 524.037 109.248 521.43 106.386C518.822 103.524 515.731 102.093 512.156 102.093Z" fill="#26353B"/>
</svg>
